<?xml version="1.0" encoding="utf-8"?>
<!-- Generator: Adobe Illustrator 13.0.2, SVG Export Plug-In . SVG Version: 6.00 Build 14948)  -->
<!DOCTYPE svg PUBLIC "-//W3C//DTD SVG 1.1//EN" "http://www.w3.org/Graphics/SVG/1.1/DTD/svg11.dtd">
<svg version="1.1" id="Layer_1" xmlns="http://www.w3.org/2000/svg" xmlns:xlink="http://www.w3.org/1999/xlink" x="0px" y="0px"
	 width="222.938px" height="325.746px" viewBox="0 0 222.938 325.746" enable-background="new 0 0 222.938 325.746"
	 xml:space="preserve">
<g>
	<path fill="none" d="M209.518,224.69c-0.604-36.241-0.301-102.944-0.301-132.986c0-19.459,7.064-21.315,10.647-26.266
		c-16.212-8.022-41.637-29.017-49.315-49.33C107.755,47.516,48.713,40.858,3.666,0.747c-3.334-1.4-4.948-1.256-2.449,4.207
		C13.105,30.915,43.75,55.051,72.265,59.805C55.534,71.766,43.085,88.652,42.06,103.16c-37.371,7-40.614,31.58-36.347,32.773
		c8.871,2.732,11.944-9.389,36.003-8.364v14.339c-24.398,0.512-46.241,31.919-32.933,33.115c10.239-0.344,7.679-9.561,32.763-9.73
		v42.502c0,33.111-25.424,33.969-12.97,40.455c7.68,2.391,37.371-19.459,40.271-44.895c9.387,1.025,11.604,1.025,17.575-0.34
		c3.412,24.41-11.092,35.332-13.822,36.871c-74.736,8.533-73.031,82.445-69.788,85.859c32.76-86.029,116.376-50.185,142.995-26.801
		c18.258-30.212,53.237-45.062,77.128-49.158C217.989,245.69,209.788,233.612,209.518,224.69z M90.689,63.047
		c6.144,1.367,16.556,1.025,21.504,1.367c-6.656,6.145-12.628,11.095-19.113,20.824c-4.096-1.878-11.092-3.926-16.723-3.754
		C80.793,73.461,85.573,65.95,90.689,63.047z M86.425,191.068c-5.802,1.881-14.333,1.195-16.381,0.172
		c0-12.46-1.535-93.54,1.025-97.637c3.923-0.341,12.797,0,17.404,1.876C84.378,100.6,86.425,179.121,86.425,191.068z
		 M173.28,231.862c-8.361,1.539-29.007,13.315-36.003,21.679c-7.339-5.119-32.423-14.508-48.12-14.336
		c21.158-13.656,26.789-37.384,25.424-62.984c16.04-5.121,41.637-6.486,58.699-0.344V231.862L173.28,231.862z M114.409,162.222
		c0-5.46,0.172-27.995,0.172-38.065c10.579,5.291,45.391,5.803,58.529,0.512v36.529C161.677,157.1,124.649,156.931,114.409,162.222z
		 M173.28,109.819c-14.846,7.168-43.854,6.486-58.188,0.342c-3.416-32.945,7.508-41.82,11.262-46.6
		c10.75-1.194,20.988-2.73,30.543-7.34c5.633,5.121,11.947,11.777,16.383,16.045V109.819z"/>
</g>
</svg>
