<?xml version="1.0" encoding="utf-8"?>
<!-- Generator: Adobe Illustrator 13.0.2, SVG Export Plug-In . SVG Version: 6.00 Build 14948)  -->
<!DOCTYPE svg PUBLIC "-//W3C//DTD SVG 1.1//EN" "http://www.w3.org/Graphics/SVG/1.1/DTD/svg11.dtd">
<svg version="1.1" id="Layer_1" xmlns="http://www.w3.org/2000/svg" xmlns:xlink="http://www.w3.org/1999/xlink" x="0px" y="0px"
	 width="233.15px" height="35.407px" viewBox="0 0 233.15 35.407" enable-background="new 0 0 233.15 35.407" xml:space="preserve">
<path fill="none" d="M31.027,11.104c-4.803,1.035-9.834,1.249-14.736,0.997c32.534-2.947,64.945-6.735,97.74-7.771
	c26.662-0.842,53.471-2.02,80.151-1.278c10.54,0.293,25.492-0.697,34.865,1.854c-26.685-0.842-53.891-2.073-80.794-1.845
	c-33.795,0.286-67.428,2.577-101.13,4.874c-14.206,0.968-29.729,0.14-43.734,3.29c29.229-7.06,60.95-7.529,90.818-8.41
	c37.691-1.112,85.828-6.864,122.427,5.417c-5.237,1.845-13.361,0.881-19.356,0.874c-21.401-0.028-42.756,0.08-64.15,0.71
	c-44.229,1.302-89.025,9.76-133.095,9.326c41.622-2.635,81.907-8.993,124.062-7.905c28.431,0.734,56.783,3.014,85.165,4.669
	c7.902,0.461,16.072,0.169,23.76,2.271c-72.354-5.588-143.301-3.37-215.088,7.266c29.59,2.641,62.896-3.375,93.225-3.376
	c36.091-0.002,72.19,3.362,108.112,3.858c-28.596-6.734-63.076-3.434-92.32-2.668C95.8,24.07,64.657,28.59,33.586,29.144
	c36.776,0.788,73.395-4.222,110.396-2.11c22.257,1.271,44.564,3.686,66.857,4.139c-21.682-3.625-43.667-5.264-65.64-5.916
	c-33.021-0.979-68.219-2.928-101.044,1.916c52.704,0.449,108.832-6.314,160.659,7.754"/>
</svg>
